<svg xmlns="http://www.w3.org/2000/svg" xmlns:xlink="http://www.w3.org/1999/xlink" viewBox="0,0,256,256" width="100px" height="100px"><g fill="#ffffff" fill-rule="nonzero" stroke="none" stroke-width="1" stroke-linecap="butt" stroke-linejoin="miter" stroke-miterlimit="10" stroke-dasharray="" stroke-dashoffset="0" font-family="none" font-weight="none" font-size="none" text-anchor="none" style="mix-blend-mode: normal"><g transform="scale(8,8)"><path d="M16.03125,3.96289c-3.34927,0 -6.69769,0.33392 -10.04297,1.00195c-1.49871,0.30001 -2.65365,1.45295 -3.04688,2.89258c0,0.00065 0,0.0013 0,0.00195c-1.47934,5.43697 -1.47934,10.90874 0,16.3457c0.3922,1.4407 1.54706,2.59565 3.04688,2.89453c6.69056,1.33607 13.39733,1.33607 20.08789,0c1.50014,-0.29868 2.65491,-1.45336 3.04688,-2.89453c1.47934,-5.43697 1.47934,-10.90874 0,-16.3457c0,-0.00065 0,-0.0013 0,-0.00195c-0.3922,-1.4407 -1.54706,-2.5937 -3.04687,-2.89258c-3.34528,-0.66804 -6.69565,-1.00195 -10.04492,-1.00195zM16.03125,5.96289c3.21623,0 6.43263,0.31993 9.65234,0.96289c0.71819,0.14312 1.30796,0.71573 1.50977,1.45703c0.79078,2.90631 1.11636,5.80106 1.00781,8.69727c-1.7064,-0.00287 -3.458,0.28075 -5.05273,1.05273c-1.78214,0.86316 -3.15812,1.67429 -4.74609,1.28516c-1.60519,-0.39344 -2.40351,-0.99764 -3.68359,-2.35742c-1.65641,-1.75896 -3.10836,-2.79113 -4.99805,-2.98633c-0.00065,0 -0.0013,0 -0.00195,0c-1.56836,-0.16092 -3.17647,0.20565 -4.49609,1.11914c-0.50064,0.34635 -0.95503,0.74398 -1.38281,1.16211c-0.03071,-2.6542 0.30668,-5.30707 1.03125,-7.9707v-0.00195c0.20309,-0.74096 0.78986,-1.31259 1.50781,-1.45703c3.21972,-0.64296 6.43612,-0.96289 9.65234,-0.96289zM20,9c-1.64497,0 -3,1.35503 -3,3c0,1.64497 1.35503,3 3,3c1.64497,0 3,-1.35503 3,-3c0,-1.64497 -1.35503,-3 -3,-3zM20,11c0.56503,0 1,0.43497 1,1c0,0.56503 -0.43497,1 -1,1c-0.56503,0 -1,-0.43497 -1,-1c0,-0.56503 0.43497,-1 1,-1zM8.67383,16.04883c0.27809,-0.01869 0.55959,-0.01302 0.83984,0.01563c1.32432,0.1368 2.20841,0.73015 3.75,2.36719c1.38592,1.47222 2.6933,2.44712 4.66211,2.92969c2.45203,0.60087 4.42789,-0.62285 6.09375,-1.42969c1.21433,-0.58784 2.62165,-0.8379 4.03711,-0.85352c-0.16671,1.5319 -0.44522,3.06508 -0.86328,4.60156c-0.20203,0.74283 -0.78795,1.31371 -1.50781,1.45703c-0.00065,0 -0.0013,0 -0.00195,0c-6.43943,1.28592 -12.86525,1.28592 -19.30469,0c-0.71819,-0.14312 -1.30601,-0.71573 -1.50781,-1.45703c-0.40976,-1.50597 -0.68334,-3.00824 -0.85156,-4.50977c0.69163,-0.89868 1.47655,-1.73346 2.3418,-2.33203c0.67189,-0.46511 1.47823,-0.73299 2.3125,-0.78906z"></path></g></g></svg>